<?xml version="1.0" encoding="UTF-8"?>
<svg xmlns="http://www.w3.org/2000/svg" xmlns:xlink="http://www.w3.org/1999/xlink" width="20px" height="px" viewBox="0 0 20 20" version="1.1">
<g id="surface1">
<path style=" stroke:none;fill-rule:nonzero;fill:rgb(100%,100%,100%);fill-opacity:1;" d="M 19.460938 8.695312 L 17.21875 6.457031 L 17.21875 0.585938 C 17.21875 0.261719 16.960938 0 16.632812 0 L 14.125 0 C 13.800781 0 13.539062 0.261719 13.539062 0.585938 L 13.539062 2.773438 L 11.304688 0.539062 C 10.957031 0.191406 10.492188 0 10 0 C 9.503906 0 9.042969 0.191406 8.695312 0.539062 L 0.539062 8.695312 C -0.179688 9.414062 -0.179688 10.585938 0.539062 11.304688 C 0.886719 11.652344 1.355469 11.847656 1.847656 11.847656 C 1.949219 11.847656 2.050781 11.835938 2.152344 11.820312 L 2.152344 17.84375 C 2.152344 19.035156 3.117188 20 4.308594 20 L 8.113281 20 C 8.441406 20 8.699219 19.738281 8.699219 19.414062 L 8.699219 14.980469 L 11.296875 14.980469 L 11.296875 19.414062 C 11.296875 19.738281 11.558594 20 11.882812 20 L 15.691406 20 C 16.882812 20 17.847656 19.035156 17.847656 17.84375 L 17.847656 11.820312 C 17.949219 11.835938 18.050781 11.847656 18.152344 11.847656 C 18.644531 11.847656 19.113281 11.652344 19.460938 11.304688 C 19.808594 10.957031 20 10.492188 20 10 C 20 9.507812 19.808594 9.042969 19.460938 8.695312 Z M 14.710938 1.171875 L 16.046875 1.171875 L 16.046875 5.285156 L 14.710938 3.945312 Z M 15.691406 18.828125 L 12.46875 18.828125 L 12.46875 14.394531 C 12.46875 14.070312 12.207031 13.808594 11.882812 13.808594 L 8.113281 13.808594 C 7.792969 13.808594 7.527344 14.070312 7.527344 14.394531 L 7.527344 18.828125 L 4.308594 18.828125 C 3.761719 18.828125 3.324219 18.386719 3.324219 17.84375 L 3.324219 11.132812 L 10 4.457031 L 16.675781 11.132812 L 16.675781 17.84375 C 16.675781 18.386719 16.238281 18.828125 15.691406 18.828125 Z M 18.628906 10.476562 C 18.503906 10.605469 18.332031 10.675781 18.152344 10.675781 C 17.972656 10.675781 17.800781 10.605469 17.675781 10.476562 L 10.414062 3.214844 C 10.183594 2.984375 9.816406 2.984375 9.585938 3.214844 L 2.324219 10.476562 C 2.320312 10.476562 2.320312 10.476562 2.320312 10.476562 C 2.195312 10.605469 2.023438 10.675781 1.847656 10.675781 C 1.667969 10.675781 1.496094 10.605469 1.371094 10.476562 C 1.105469 10.214844 1.105469 9.785156 1.371094 9.523438 L 9.519531 1.371094 C 9.652344 1.242188 9.820312 1.171875 10 1.171875 C 10.179688 1.171875 10.347656 1.242188 10.476562 1.371094 L 13.710938 4.601562 L 18.628906 9.523438 C 18.894531 9.785156 18.894531 10.214844 18.628906 10.476562 Z M 18.628906 10.476562 "/>
</g>
</svg>
