<?xml version="1.0" encoding="UTF-8"?>
<svg xmlns="http://www.w3.org/2000/svg" xmlns:xlink="http://www.w3.org/1999/xlink" width="20px" height="px" viewBox="0 0 20 20" version="1.1">
<g id="surface1">
<path style=" stroke:none;fill-rule:nonzero;fill:rgb(100%,100%,100%);fill-opacity:1;" d="M 10 11.265625 C 3.992188 11.265625 0.679688 14.109375 0.679688 19.269531 C 0.679688 19.675781 1.007812 20 1.414062 20 L 18.585938 20 C 18.992188 20 19.320312 19.675781 19.320312 19.269531 C 19.320312 14.109375 16.007812 11.265625 10 11.265625 Z M 2.167969 18.542969 C 2.453125 14.679688 5.085938 12.722656 10 12.722656 C 14.914062 12.722656 17.546875 14.679688 17.832031 18.542969 Z M 2.167969 18.542969 "/>
<path style=" stroke:none;fill-rule:nonzero;fill:rgb(100%,100%,100%);fill-opacity:1;" d="M 10 0 C 7.238281 0 5.160156 2.121094 5.160156 4.9375 C 5.160156 7.839844 7.332031 10.195312 10 10.195312 C 12.667969 10.195312 14.839844 7.839844 14.839844 4.9375 C 14.839844 2.121094 12.761719 0 10 0 Z M 10 8.734375 C 8.136719 8.734375 6.617188 7.03125 6.617188 4.9375 C 6.617188 2.921875 8.039062 1.457031 10 1.457031 C 11.925781 1.457031 13.382812 2.957031 13.382812 4.9375 C 13.382812 7.03125 11.863281 8.734375 10 8.734375 Z M 10 8.734375 "/>
</g>
</svg>
