<?xml version="1.0" encoding="UTF-8"?>
<svg xmlns="http://www.w3.org/2000/svg" xmlns:xlink="http://www.w3.org/1999/xlink" width="24px" height="24px" viewBox="0 0 24 24" version="1.1">
<g id="surface1">
<path style=" stroke:none;fill-rule:nonzero;fill:rgb(100%,100%,100%);fill-opacity:1;" d="M 8.398438 11.972656 C 10.882812 11.972656 12.898438 9.957031 12.898438 7.472656 C 12.898438 4.984375 10.882812 2.96875 8.398438 2.96875 C 5.914062 2.972656 3.898438 4.984375 3.898438 7.472656 C 3.90625 9.957031 5.914062 11.96875 8.398438 11.972656 Z M 8.398438 4.546875 C 10.015625 4.546875 11.324219 5.855469 11.324219 7.472656 C 11.324219 9.085938 10.015625 10.398438 8.398438 10.398438 C 6.78125 10.398438 5.476562 9.085938 5.476562 7.472656 C 5.476562 5.855469 6.78125 4.546875 8.398438 4.546875 Z M 8.398438 4.546875 "/>
<path style=" stroke:none;fill-rule:nonzero;fill:rgb(100%,100%,100%);fill-opacity:1;" d="M 17.90625 12.367188 C 19.753906 12.367188 21.253906 10.867188 21.253906 9.019531 C 21.253906 7.167969 19.753906 5.671875 17.90625 5.671875 C 16.058594 5.671875 14.558594 7.167969 14.558594 9.019531 C 14.558594 10.867188 16.058594 12.359375 17.90625 12.367188 Z M 17.90625 7.246094 C 18.886719 7.246094 19.679688 8.039062 19.679688 9.019531 C 19.679688 9.992188 18.886719 10.789062 17.90625 10.789062 C 16.925781 10.789062 16.132812 9.992188 16.132812 9.019531 C 16.132812 8.039062 16.925781 7.246094 17.90625 7.246094 Z M 17.90625 7.246094 "/>
<path style=" stroke:none;fill-rule:nonzero;fill:rgb(100%,100%,100%);fill-opacity:1;" d="M 17.90625 13.285156 C 16.296875 13.289062 14.765625 13.945312 13.65625 15.101562 C 11.203125 13.070312 7.800781 12.632812 4.914062 13.984375 C 2.03125 15.335938 0.1875 18.234375 0.1875 21.421875 C 0.1875 21.859375 0.539062 22.210938 0.976562 22.210938 L 15.824219 22.210938 C 16.261719 22.210938 16.613281 21.859375 16.613281 21.421875 C 16.613281 20.9375 16.570312 20.457031 16.480469 19.976562 L 23.023438 19.976562 C 23.460938 19.976562 23.8125 19.625 23.8125 19.191406 C 23.808594 15.933594 21.167969 13.289062 17.90625 13.285156 Z M 1.808594 20.632812 C 2.175781 17.523438 4.664062 15.089844 7.785156 14.804688 C 10.902344 14.511719 13.800781 16.445312 14.734375 19.433594 C 14.859375 19.824219 14.945312 20.226562 14.992188 20.632812 Z M 16.027344 18.402344 C 15.71875 17.621094 15.289062 16.882812 14.757812 16.226562 C 15.871094 15.039062 17.5625 14.578125 19.128906 15.039062 C 20.699219 15.496094 21.871094 16.800781 22.167969 18.402344 Z M 16.027344 18.402344 "/>
</g>
</svg>
