<?xml version="1.0" encoding="UTF-8"?>
<svg xmlns="http://www.w3.org/2000/svg" xmlns:xlink="http://www.w3.org/1999/xlink" width="20px" height="px" viewBox="0 0 20 20" version="1.1">
<g id="surface1">
<path style=" stroke:none;fill-rule:nonzero;fill:rgb(100%,100%,100%);fill-opacity:1;" d="M 8.75 0 C 3.925781 0 0 3.195312 0 7.125 C 0 9.113281 1 10.980469 2.765625 12.320312 C 2.203125 13.191406 1.429688 14.15625 0.476562 14.390625 C 0.171875 14.464844 -0.0273438 14.753906 0.00390625 15.0625 C 0.03125 15.371094 0.289062 15.609375 0.597656 15.621094 C 0.613281 15.621094 0.671875 15.625 0.757812 15.625 C 1.40625 15.625 3.898438 15.519531 6.730469 14.054688 C 7.371094 14.183594 8.054688 14.246094 8.75 14.246094 C 13.570312 14.246094 17.496094 11.050781 17.496094 7.125 C 17.496094 3.195312 13.570312 0 8.75 0 Z M 8.75 12.996094 C 8.0625 12.996094 7.398438 12.925781 6.773438 12.785156 C 6.628906 12.75 6.472656 12.773438 6.339844 12.84375 C 5.128906 13.5 3.972656 13.875 3.019531 14.089844 C 3.460938 13.574219 3.828125 12.996094 4.144531 12.46875 C 4.3125 12.179688 4.226562 11.808594 3.945312 11.628906 C 2.234375 10.503906 1.25 8.863281 1.25 7.125 C 1.25 3.882812 4.613281 1.25 8.75 1.25 C 12.882812 1.25 16.246094 3.882812 16.246094 7.125 C 16.246094 10.363281 12.882812 12.996094 8.75 12.996094 Z M 8.75 12.996094 "/>
<path style=" stroke:none;fill-rule:nonzero;fill:rgb(100%,100%,100%);fill-opacity:1;" d="M 19.527344 18.757812 C 18.8125 18.574219 18.121094 17.996094 17.472656 17.039062 C 19.085938 15.789062 19.996094 14.070312 19.996094 12.238281 C 19.996094 11.367188 19.792969 10.511719 19.382812 9.695312 C 19.226562 9.386719 18.847656 9.261719 18.542969 9.414062 C 18.234375 9.570312 18.109375 9.945312 18.261719 10.253906 C 18.582031 10.894531 18.746094 11.5625 18.746094 12.238281 C 18.746094 13.820312 17.847656 15.320312 16.277344 16.351562 C 16 16.535156 15.914062 16.902344 16.085938 17.191406 C 16.394531 17.710938 16.710938 18.160156 17.042969 18.539062 C 16.199219 18.363281 15.183594 18.042969 14.121094 17.472656 C 13.988281 17.402344 13.835938 17.382812 13.6875 17.410156 C 11.175781 17.964844 8.46875 17.3125 6.777344 15.816406 C 6.511719 15.585938 6.121094 15.613281 5.890625 15.871094 C 5.664062 16.128906 5.691406 16.527344 5.949219 16.753906 C 7.886719 18.460938 10.894531 19.230469 13.730469 18.683594 C 16.003906 19.851562 18.050781 20 18.953125 20 C 19.238281 20 19.40625 19.984375 19.433594 19.984375 C 19.738281 19.953125 19.972656 19.710938 19.996094 19.40625 C 20.019531 19.105469 19.820312 18.832031 19.527344 18.757812 Z M 19.527344 18.757812 "/>
</g>
</svg>
