<?xml version="1.0" encoding="UTF-8"?>
<svg xmlns="http://www.w3.org/2000/svg" xmlns:xlink="http://www.w3.org/1999/xlink" width="20px" height="px" viewBox="0 0 20 20" version="1.1">
<g id="surface1">
<path style=" stroke:none;fill-rule:nonzero;fill:rgb(100%,100%,100%);fill-opacity:1;" d="M 19.121094 11.589844 L 18.292969 10.90625 C 17.71875 10.4375 17.722656 9.5625 18.292969 9.09375 L 19.121094 8.410156 C 19.714844 7.921875 19.867188 7.085938 19.480469 6.421875 L 17.839844 3.578125 C 17.453125 2.914062 16.65625 2.628906 15.9375 2.894531 L 14.929688 3.273438 C 14.238281 3.53125 13.484375 3.097656 13.363281 2.371094 L 13.183594 1.304688 C 13.058594 0.550781 12.410156 0 11.644531 0 L 8.355469 0 C 7.589844 0 6.941406 0.550781 6.816406 1.304688 L 6.636719 2.371094 C 6.515625 3.097656 5.761719 3.53125 5.070312 3.273438 L 4.0625 2.894531 C 3.34375 2.628906 2.546875 2.914062 2.160156 3.578125 L 0.519531 6.421875 C 0.132812 7.085938 0.285156 7.921875 0.878906 8.410156 L 1.707031 9.09375 C 2.28125 9.5625 2.277344 10.4375 1.707031 10.90625 L 0.878906 11.589844 C 0.285156 12.078125 0.132812 12.914062 0.519531 13.578125 L 2.160156 16.421875 C 2.546875 17.085938 3.34375 17.371094 4.0625 17.105469 L 5.070312 16.726562 C 5.761719 16.46875 6.515625 16.902344 6.636719 17.628906 L 6.816406 18.695312 C 6.941406 19.449219 7.589844 20 8.355469 20 L 11.644531 20 C 12.410156 20 13.058594 19.449219 13.183594 18.695312 L 13.363281 17.628906 C 13.484375 16.902344 14.238281 16.46875 14.929688 16.726562 L 15.9375 17.105469 C 16.65625 17.371094 17.453125 17.085938 17.839844 16.421875 L 19.480469 13.578125 C 19.867188 12.914062 19.714844 12.078125 19.121094 11.589844 Z M 16.484375 15.640625 L 15.476562 15.261719 C 13.863281 14.660156 12.101562 15.675781 11.820312 17.371094 L 11.644531 18.4375 L 8.355469 18.4375 L 8.179688 17.371094 C 7.898438 15.675781 6.132812 14.660156 4.523438 15.261719 L 3.515625 15.640625 L 1.871094 12.796875 L 2.707031 12.113281 C 4.035156 11.015625 4.03125 8.980469 2.707031 7.886719 L 1.871094 7.203125 L 3.515625 4.359375 L 4.523438 4.738281 C 6.136719 5.339844 7.898438 4.324219 8.179688 2.628906 L 8.355469 1.5625 L 11.644531 1.5625 L 11.820312 2.628906 C 12.101562 4.324219 13.867188 5.339844 15.476562 4.738281 L 16.484375 4.359375 L 18.128906 7.203125 L 17.292969 7.886719 C 15.964844 8.984375 15.96875 11.019531 17.292969 12.113281 L 18.128906 12.796875 Z M 10 6.144531 C 7.875 6.144531 6.144531 7.875 6.144531 10 C 6.144531 12.125 7.875 13.855469 10 13.855469 C 12.125 13.855469 13.855469 12.125 13.855469 10 C 13.855469 7.875 12.125 6.144531 10 6.144531 Z M 10 12.292969 C 8.738281 12.292969 7.707031 11.261719 7.707031 10 C 7.707031 8.738281 8.738281 7.707031 10 7.707031 C 11.261719 7.707031 12.292969 8.738281 12.292969 10 C 12.292969 11.261719 11.261719 12.292969 10 12.292969 Z M 10 12.292969 "/>
</g>
</svg>
