<?xml version="1.0" encoding="UTF-8"?>
<svg xmlns="http://www.w3.org/2000/svg" xmlns:xlink="http://www.w3.org/1999/xlink" width="20px" height="20px" viewBox="0 0 20 20" version="1.1">
<g id="surface1">
<path style=" stroke:none;fill-rule:nonzero;fill:rgb(100%,100%,100%);fill-opacity:1;" d="M 15.664062 20 L 4.414062 20 C 3.378906 20 2.539062 19.160156 2.539062 18.125 L 2.539062 9.375 C 2.539062 8.339844 3.378906 7.5 4.414062 7.5 L 15.664062 7.5 C 16.699219 7.5 17.539062 8.339844 17.539062 9.375 L 17.539062 18.125 C 17.539062 19.160156 16.699219 20 15.664062 20 Z M 4.414062 8.75 C 4.070312 8.75 3.789062 9.03125 3.789062 9.375 L 3.789062 18.125 C 3.789062 18.46875 4.070312 18.75 4.414062 18.75 L 15.664062 18.75 C 16.007812 18.75 16.289062 18.46875 16.289062 18.125 L 16.289062 9.375 C 16.289062 9.03125 16.007812 8.75 15.664062 8.75 Z M 4.414062 8.75 "/>
<path style=" stroke:none;fill-rule:nonzero;fill:rgb(100%,100%,100%);fill-opacity:1;" d="M 14.414062 8.75 C 14.070312 8.75 13.789062 8.46875 13.789062 8.125 L 13.789062 5 C 13.789062 2.933594 12.105469 1.25 10.039062 1.25 C 7.972656 1.25 6.289062 2.933594 6.289062 5 L 6.289062 8.125 C 6.289062 8.46875 6.007812 8.75 5.664062 8.75 C 5.320312 8.75 5.039062 8.46875 5.039062 8.125 L 5.039062 5 C 5.039062 2.242188 7.28125 0 10.039062 0 C 12.796875 0 15.039062 2.242188 15.039062 5 L 15.039062 8.125 C 15.039062 8.46875 14.757812 8.75 14.414062 8.75 Z M 14.414062 8.75 "/>
</g>
</svg>
