<?xml version="1.0" encoding="UTF-8"?>
<svg xmlns="http://www.w3.org/2000/svg" xmlns:xlink="http://www.w3.org/1999/xlink" width="20px" height="20px" viewBox="0 0 20 20" version="1.1">
<g id="surface1">
<path style=" stroke:none;fill-rule:nonzero;fill:rgb(100%,100%,100%);fill-opacity:1;" d="M 14.511719 14.78125 L 14.511719 16.1875 C 14.511719 17.738281 13.25 19 11.699219 19 L 4.632812 19 C 3.082031 19 1.820312 17.738281 1.820312 16.1875 L 1.820312 3.8125 C 1.820312 2.261719 3.082031 1 4.632812 1 L 11.699219 1 C 13.25 1 14.511719 2.261719 14.511719 3.8125 L 14.511719 5.21875 C 14.511719 5.605469 14.195312 5.921875 13.808594 5.921875 C 13.421875 5.921875 13.105469 5.605469 13.105469 5.21875 L 13.105469 3.8125 C 13.105469 3.039062 12.472656 2.40625 11.699219 2.40625 L 4.632812 2.40625 C 3.855469 2.40625 3.226562 3.039062 3.226562 3.8125 L 3.226562 16.1875 C 3.226562 16.960938 3.855469 17.59375 4.632812 17.59375 L 11.699219 17.59375 C 12.472656 17.59375 13.105469 16.960938 13.105469 16.1875 L 13.105469 14.78125 C 13.105469 14.394531 13.421875 14.078125 13.808594 14.078125 C 14.195312 14.078125 14.511719 14.394531 14.511719 14.78125 Z M 19.304688 8.792969 L 17.730469 7.21875 C 17.457031 6.941406 17.011719 6.941406 16.738281 7.21875 C 16.460938 7.492188 16.460938 7.9375 16.738281 8.210938 L 17.855469 9.332031 L 9.414062 9.332031 C 9.027344 9.332031 8.710938 9.648438 8.710938 10.035156 C 8.710938 10.421875 9.027344 10.738281 9.414062 10.738281 L 17.855469 10.738281 L 16.738281 11.859375 C 16.460938 12.132812 16.460938 12.578125 16.738281 12.851562 C 16.875 12.988281 17.054688 13.058594 17.234375 13.058594 C 17.414062 13.058594 17.59375 12.988281 17.730469 12.851562 L 19.304688 11.277344 C 19.992188 10.59375 19.992188 9.476562 19.304688 8.792969 Z M 19.304688 8.792969 "/>
</g>
</svg>
