<svg xmlns="http://www.w3.org/2000/svg" xmlns:xlink="http://www.w3.org/1999/xlink" width="64px" height="64px" viewBox="0 0 64 64" version="1.1">
<g id="surface1">
<path style=" stroke:none;fill-rule:nonzero;fill:rgb(58.431373%,66.666667%,78.823529%);fill-opacity:1;" d="M 51.199219 8.960938 L 12.800781 8.960938 C 9.273438 8.960938 6.398438 11.828125 6.398438 15.359375 L 6.398438 40.960938 C 6.398438 44.492188 9.273438 47.359375 12.800781 47.359375 L 19.199219 47.359375 L 19.199219 53.761719 C 19.199219 54.214844 19.4375 54.628906 19.828125 54.859375 C 20.027344 54.980469 20.253906 55.039062 20.480469 55.039062 C 20.691406 55.039062 20.902344 54.984375 21.09375 54.882812 C 21.09375 54.882812 32.894531 48.441406 34.886719 47.359375 L 51.199219 47.359375 C 54.726562 47.359375 57.601562 44.492188 57.601562 40.960938 L 57.601562 15.359375 C 57.601562 11.828125 54.726562 8.960938 51.199219 8.960938 Z M 55.039062 40.960938 C 55.039062 43.078125 53.316406 44.800781 51.199219 44.800781 L 34.558594 44.800781 C 34.246094 44.800781 34.230469 44.800781 21.761719 51.601562 L 21.761719 46.078125 C 21.761719 45.375 21.1875 44.800781 20.480469 44.800781 L 12.800781 44.800781 C 10.683594 44.800781 8.960938 43.078125 8.960938 40.960938 L 8.960938 15.359375 C 8.960938 13.242188 10.683594 11.519531 12.800781 11.519531 L 51.199219 11.519531 C 53.316406 11.519531 55.039062 13.242188 55.039062 15.359375 Z M 55.039062 40.960938 "/>
</g>
</svg>