<svg xmlns="http://www.w3.org/2000/svg" xmlns:xlink="http://www.w3.org/1999/xlink" width="16px" height="16px" viewBox="0 0 16 16" version="1.1">
<g id="surface1">
<path style=" stroke:none;fill-rule:nonzero;fill:rgb(100%,100%,100%);fill-opacity:1;" d="M 15.988281 1.613281 C 16.070312 1.253906 15.710938 0.945312 15.363281 1.078125 L 0.300781 6.828125 C 0.117188 6.898438 0 7.070312 0 7.265625 C 0 7.457031 0.117188 7.632812 0.300781 7.703125 L 4.53125 9.335938 L 4.53125 14.484375 C 4.53125 14.703125 4.679688 14.890625 4.890625 14.941406 C 5.101562 14.992188 5.320312 14.890625 5.417969 14.695312 L 7.167969 11.222656 L 11.441406 14.390625 C 11.699219 14.585938 12.074219 14.460938 12.167969 14.152344 C 16.152344 1.078125 15.984375 1.648438 15.988281 1.613281 Z M 12.269531 3.261719 L 4.933594 8.488281 L 1.777344 7.269531 Z M 5.46875 9.257812 L 11.863281 4.703125 C 6.359375 10.507812 6.648438 10.203125 6.625 10.234375 C 6.589844 10.285156 6.683594 10.097656 5.46875 12.511719 Z M 11.464844 13.242188 L 7.703125 10.453125 L 14.503906 3.285156 Z M 11.464844 13.242188 "/>
</g>
</svg>